# xmcd
# 
# Track frame offsets:
#     182
#     22835
#     47052
#     73737
#     94920
#     118527
#     144765
#     169855
#     196587
#     219695
#     238267
#     262747
# 
# Disc length: 3771
# 
# Revision: 0
# Processed by: cddbd v1.5.2PL0 Copyright (c) Steve Scherf et al.
# Submitted via: fre:ac v1.0.17
# 
DISCID=a00eb90c
DTITLE=Guesss - Guesss
DYEAR=1994
DGENRE=R&B
TTITLE0=Shu-B
TTITLE1=My Reason (For Loving Someone Else)
TTITLE2=Tell Me Where It Hurts
TTITLE3=Give Me One More Chance
TTITLE4=Same Ole Story
TTITLE5=It's You That I Need
TTITLE6=WakDatPaddi
TTITLE7=Tonight
TTITLE8=Mystery Love Affair
TTITLE9=Don't Tell Me
TTITLE10=He Say, She Say
TTITLE11=Make Up Your Mind
EXTD=
EXTT0=
EXTT1=
EXTT2=
EXTT3=
EXTT4=
EXTT5=
EXTT6=
EXTT7=
EXTT8=
EXTT9=
EXTT10=
EXTT11=
PLAYORDER=
